<svg width="520" height="191" viewBox="0 0 520 191" fill="none" xmlns="http://www.w3.org/2000/svg">
<path fill-rule="evenodd" clip-rule="evenodd" d="M112.81 29.0771L151.06 39.0362L93.3086 8.72437L112.81 29.0771ZM84.0659 4.41217L10.9883 70.5577L108.639 30.0565L84.0659 4.41217ZM109.818 35.941L55.641 99.6109L108.098 89.9047L109.818 35.941ZM6.16467 76.5474L50.4292 100.04L105.467 35.3605L6.16467 76.5474ZM111.769 90.7365L150.058 131.311L113.398 39.618L111.769 90.7365ZM114.905 33.4279L154.365 132.129L164.105 46.2371L114.905 33.4279ZM7.58154 81.4725L72.6917 176.92L49.3395 103.635L7.58154 81.4725ZM53.2678 103.793L78.3079 182.38L107.178 93.8179L53.2678 103.793ZM110.69 94.9724L81.6344 184.107L152.498 139.269L110.69 94.9724ZM78.2905 190.245C78.2352 190.245 78.1782 190.243 78.1212 190.237C77.9536 190.221 77.7892 190.183 77.6362 190.127C77.3416 190.016 77.0747 189.828 76.8631 189.575V189.574H76.8614C76.8224 189.523 76.7833 189.475 76.7475 189.418L0.320169 77.3776C0.0792732 77.0258 -0.0232702 76.6157 0.00440026 76.2185V76.2169V76.2152C0.00602793 76.2136 0.00602793 76.2136 0.00602793 76.212C0.0125386 76.0936 0.0320707 75.9769 0.0629964 75.865V75.8618L0.0646241 75.8602C0.14438 75.5651 0.300636 75.2863 0.530138 75.0528C0.556181 75.0253 0.587107 74.9977 0.616405 74.9718L82.8838 0.506204C82.9717 0.421901 83.0661 0.348946 83.167 0.284098C83.3998 0.138189 83.6553 0.0474006 83.9174 0.0149763C84.1794 -0.0190691 84.4561 0.00524906 84.7198 0.0846885C84.8338 0.121976 84.9477 0.170613 85.0551 0.230598L166.948 43.2122C167.246 43.363 167.492 43.5851 167.668 43.851V43.8526C167.669 43.8526 167.669 43.8542 167.669 43.8542L167.671 43.8558C167.671 43.8574 167.671 43.8574 167.672 43.8591L167.674 43.8639C167.676 43.8655 167.676 43.8672 167.676 43.8672L167.677 43.8688C167.69 43.8882 167.703 43.9077 167.713 43.9272L167.716 43.9304C167.716 43.932 167.718 43.932 167.718 43.932L167.72 43.9369C167.721 43.9385 167.721 43.9401 167.723 43.9434C167.723 43.945 167.725 43.945 167.725 43.945V43.9466C167.92 44.2854 168.006 44.6875 167.954 45.0928L157.213 139.817C157.205 139.903 157.19 139.989 157.169 140.073C157.169 140.076 157.166 140.078 157.166 140.083L157.164 140.085C157.146 140.162 157.122 140.234 157.093 140.307V140.308V140.31C156.961 140.641 156.733 140.932 156.427 141.145C156.425 141.145 156.425 141.146 156.425 141.146C156.425 141.146 156.424 141.146 156.42 141.148C156.404 141.161 156.385 141.174 156.365 141.184L79.285 189.955C79.2622 189.969 79.2378 189.984 79.2134 189.998C78.9253 190.165 78.6047 190.245 78.2905 190.245V190.245Z" fill="#FF7C49"/>
<path fill-rule="evenodd" clip-rule="evenodd" d="M214.235 35.7548C213.164 34.688 212.629 33.3165 212.629 31.6402C212.629 29.7093 213.241 28.1091 214.465 26.8397C215.689 25.5703 217.321 24.9348 219.361 24.9348C221.4 24.9348 222.956 25.4812 224.027 26.5722C225.098 27.6666 225.634 29.0251 225.634 30.6496C225.634 32.681 225.022 34.3054 223.798 35.5246C222.574 36.7437 220.865 37.3533 218.672 37.3533H218.596C216.76 37.3533 215.306 36.8215 214.235 35.7548V35.7548ZM214.54 51.5277L209.108 50.08V44.9748L223.108 43.2968H223.261L225.403 44.8224V81.4732L230.529 82.0827V86.6546H209.185V82.0827L214.54 81.3953V51.5277Z" fill="#150D3F"/>
<path fill-rule="evenodd" clip-rule="evenodd" d="M240.321 51.5271L235.425 50.1556V44.898L248.124 43.2979H248.353L250.266 44.8218V47.7935L250.189 49.6222C251.973 47.9459 254.294 46.4981 257.151 45.279C260.006 44.0614 262.889 43.4519 265.796 43.4519C268.906 43.4519 271.343 44.0225 273.102 45.1655C274.86 46.3068 276.123 48.0983 276.888 50.5382C277.653 52.9765 278.036 56.2789 278.036 60.4422V81.4742L282.702 82.0837V86.6539H262.965V82.0837L267.096 81.4742V60.4422C267.096 57.8012 266.917 55.7326 266.561 54.2329C266.202 52.7349 265.553 51.6406 264.609 50.9548C263.665 50.2707 262.327 49.9286 260.593 49.9286C257.686 49.9286 254.574 51.1721 251.26 53.6606V81.3964L255.85 82.0837V86.6539H235.884V82.0837L240.321 81.3964V51.5271Z" fill="#150D3F"/>
<path fill-rule="evenodd" clip-rule="evenodd" d="M293.871 85.1305C292.341 83.6568 291.576 81.319 291.576 78.1204V50.1561H286.604V46.1922C287.01 46.0414 287.751 45.7755 288.822 45.3929C289.893 45.0119 290.709 44.6958 291.27 44.4397C292.136 43.7814 292.877 42.6385 293.489 41.0124C293.948 39.9457 294.789 37.3047 296.013 33.0863H302.133L302.439 44.2889H314.144V50.1561H302.516V71.5674C302.516 74.4126 302.592 76.4181 302.745 77.587C302.898 78.7543 303.23 79.5033 303.74 79.834C304.247 80.1647 305.141 80.3301 306.417 80.3301C307.692 80.3301 309.018 80.1907 310.395 79.9102C311.772 79.6313 312.92 79.2876 313.838 78.8823L315.291 83.1477C313.862 84.2161 311.772 85.1808 309.018 86.0432C306.264 86.9073 303.587 87.3386 300.986 87.3386C297.773 87.3386 295.401 86.6042 293.871 85.1305" fill="#150D3F"/>
<path fill-rule="evenodd" clip-rule="evenodd" d="M319.346 82.1589L324.395 81.5493V51.5261L319.499 50.1561V44.8985L331.356 43.2968H331.586L333.498 44.8223V46.4987L333.269 52.6706H333.498C333.855 51.6558 334.696 50.3977 336.023 48.8981C337.348 47.4017 339.018 46.0788 341.033 44.9358C343.048 43.7929 345.227 43.2206 347.574 43.2206C348.696 43.2206 349.664 43.3746 350.481 43.6794V55.1073C348.951 54.0406 347.088 53.5088 344.897 53.5088C341.173 53.5088 337.935 54.4977 335.181 56.4805V81.4731L344.055 82.1589V86.6529H319.346V82.1589Z" fill="#150D3F"/>
<path fill-rule="evenodd" clip-rule="evenodd" d="M376.032 80.2144C377.409 79.5805 378.607 78.8055 379.627 77.8912V65.3948C375.037 65.3948 371.606 66.1698 369.337 67.718C367.068 69.2695 365.933 71.262 365.933 73.6987C365.933 76.1386 366.506 77.9933 367.656 79.2627C368.801 80.5321 370.37 81.1676 372.36 81.1676C373.431 81.1676 374.655 80.8515 376.032 80.2144M361.534 64.3283C366.201 61.9922 372.231 60.7973 379.627 60.7471V58.9945C379.627 56.9129 379.409 55.2868 378.976 54.1179C378.543 52.9507 377.752 52.0736 376.606 51.4883C375.457 50.9063 373.787 50.6129 371.595 50.6129C369.095 50.6129 366.852 50.9306 364.863 51.5645C362.874 52.2017 360.808 53.0252 358.666 54.0401L356.295 49.1651C357.06 48.5053 358.347 47.7174 360.159 46.803C361.967 45.8886 364.122 45.0878 366.622 44.402C369.121 43.7162 371.696 43.3741 374.349 43.3741C378.275 43.3741 381.348 43.8832 383.566 44.8981C385.785 45.9146 387.378 47.5407 388.348 49.7747C389.317 52.012 389.802 55.0064 389.802 58.7659V82.0822H393.933V86.3493C392.912 86.6038 391.459 86.8567 389.572 87.1112C387.684 87.3641 386.027 87.4922 384.6 87.4922C382.865 87.4922 381.704 87.2377 381.118 86.7303C380.532 86.2228 380.239 85.1804 380.239 83.6062V81.5489C378.862 83.0728 377.077 84.4443 374.884 85.6635C372.69 86.8826 370.218 87.4922 367.464 87.4922C365.117 87.4922 362.962 86.9978 360.999 86.0056C359.036 85.015 357.467 83.5673 356.295 81.664C355.121 79.759 354.535 77.4602 354.535 74.7673C354.535 70.1452 356.869 66.6661 361.534 64.3283" fill="#150D3F"/>
<path fill-rule="evenodd" clip-rule="evenodd" d="M402.959 51.5271L398.062 50.1556V44.898L410.762 43.2979H410.991L412.904 44.8218V47.7935L412.827 49.6222C414.611 47.9459 416.932 46.4981 419.789 45.279C422.644 44.0614 425.526 43.4519 428.433 43.4519C431.544 43.4519 433.98 44.0225 435.74 45.1655C437.498 46.3068 438.761 48.0983 439.526 50.5382C440.291 52.9765 440.673 56.2789 440.673 60.4422V81.4742L445.34 82.0837V86.6539H425.603V82.0837L429.734 81.4742V60.4422C429.734 57.8012 429.555 55.7326 429.198 54.2329C428.84 52.7349 428.191 51.6406 427.247 50.9548C426.303 50.2707 424.965 49.9286 423.231 49.9286C420.324 49.9286 417.212 51.1721 413.898 53.6606V81.3964L418.488 82.0837V86.6539H398.522V82.0837L402.959 81.3964V51.5271Z" fill="#150D3F"/>
<path fill-rule="evenodd" clip-rule="evenodd" d="M476.017 61.5088C476.117 60.087 476.17 58.9943 476.17 58.2324C476.17 51.4784 473.899 48.0982 469.361 48.0982C466.861 48.0982 464.924 49.0887 463.547 51.0699C462.17 53.051 461.405 56.5317 461.252 61.5088H476.017ZM455.018 81.5883C451.729 77.652 450.083 72.2809 450.083 65.4718C450.083 60.9 450.936 56.9378 452.647 53.5851C454.354 50.2324 456.763 47.6677 459.875 45.8892C462.986 44.1123 466.581 43.2223 470.662 43.2223C475.761 43.2223 479.689 44.5565 482.443 47.2218C485.197 49.8887 486.624 53.6872 486.727 58.6141C486.727 61.9668 486.523 64.4553 486.115 66.0814H461.252C461.456 70.7051 462.553 74.2993 464.542 76.8641C466.531 79.4288 469.361 80.7112 473.033 80.7112C475.022 80.7112 477.075 80.3821 479.192 79.7207C481.307 79.0608 482.978 78.2729 484.202 77.3586L486.115 81.5494C484.738 83.0247 482.506 84.3817 479.42 85.6267C476.334 86.8702 473.211 87.4928 470.05 87.4928C463.318 87.4928 458.308 85.5246 455.018 81.5883V81.5883Z" fill="#150D3F"/>
<mask id="mask0_354_2379" style="mask-type:luminance" maskUnits="userSpaceOnUse" x="491" y="33" width="29" height="55">
<path fill-rule="evenodd" clip-rule="evenodd" d="M491.313 33.0863H520V87.3386H491.313V33.0863Z" fill="white"/>
</mask>
<g mask="url(#mask0_354_2379)">
<path fill-rule="evenodd" clip-rule="evenodd" d="M498.581 85.1305C497.051 83.6568 496.286 81.319 496.286 78.1204V50.1561H491.313V46.1922C491.72 46.0414 492.461 45.7755 493.532 45.3929C494.603 45.0119 495.418 44.6958 495.98 44.4397C496.846 43.7814 497.587 42.6385 498.199 41.0124C498.658 39.9457 499.499 37.3047 500.723 33.0863H506.843L507.149 44.2889H518.854V50.1561H507.226V71.5674C507.226 74.4126 507.302 76.4181 507.455 77.587C507.608 78.7543 507.94 79.5033 508.45 79.834C508.957 80.1647 509.851 80.3301 511.127 80.3301C512.402 80.3301 513.728 80.1907 515.105 79.9102C516.482 79.6313 517.63 79.2876 518.548 78.8823L520.001 83.1477C518.572 84.2161 516.482 85.1808 513.728 86.0432C510.974 86.9073 508.297 87.3386 505.696 87.3386C502.483 87.3386 500.111 86.6042 498.581 85.1305" fill="#150D3F"/>
</g>
<path fill-rule="evenodd" clip-rule="evenodd" d="M214.235 113.573C213.164 112.506 212.629 111.135 212.629 109.458C212.629 107.527 213.241 105.929 214.465 104.658C215.689 103.39 217.321 102.753 219.361 102.753C221.4 102.753 222.956 103.299 224.027 104.392C225.098 105.485 225.634 106.843 225.634 108.469C225.634 110.499 225.022 112.125 223.798 113.344C222.574 114.563 220.865 115.173 218.672 115.173H218.596C216.76 115.173 215.306 114.64 214.235 113.573V113.573ZM214.54 129.345L209.108 127.899V122.793L223.108 121.116H223.261L225.403 122.642V159.291L230.529 159.9V164.472H209.185V159.9L214.54 159.215V129.345Z" fill="#150D3F"/>
<path fill-rule="evenodd" clip-rule="evenodd" d="M240.321 129.346L235.425 127.975V122.717L248.124 121.117H248.353L250.266 122.641V125.613L250.189 127.441C251.973 125.765 254.294 124.317 257.151 123.098C260.006 121.879 262.889 121.269 265.796 121.269C268.906 121.269 271.343 121.84 273.102 122.983C274.86 124.126 276.123 125.917 276.888 128.356C277.653 130.794 278.036 134.096 278.036 138.261V159.292L282.702 159.901V164.473H262.965V159.901L267.096 159.292V138.261C267.096 135.62 266.917 133.55 266.561 132.052C266.202 130.554 265.553 129.46 264.609 128.774C263.665 128.09 262.327 127.746 260.593 127.746C257.686 127.746 254.574 128.991 251.26 131.48V159.216L255.85 159.901V164.473H235.884V159.901L240.321 159.216V129.346Z" fill="#150D3F"/>
<path fill-rule="evenodd" clip-rule="evenodd" d="M296.624 158.226C297.031 158.836 297.962 159.406 299.416 159.94C300.869 160.473 302.336 160.741 303.815 160.741C306.213 160.741 308.01 160.244 309.208 159.254C310.406 158.263 311.006 156.957 311.006 155.331C311.006 153.654 310.266 152.296 308.788 151.253C307.308 150.214 304.81 148.93 301.291 147.404L299.149 146.492C295.63 145.02 293.003 143.241 291.269 141.158C289.536 139.075 288.668 136.382 288.668 133.079C288.668 130.793 289.357 128.749 290.734 126.946C292.111 125.144 294.048 123.735 296.548 122.718C299.046 121.702 301.927 121.193 305.192 121.193C307.588 121.193 309.641 121.347 311.35 121.65C313.059 121.956 314.856 122.363 316.744 122.869C317.763 123.226 318.529 123.43 319.039 123.479V133.462H312.995L311.236 127.669C310.93 127.164 310.241 126.706 309.17 126.299C308.099 125.893 306.875 125.69 305.498 125.69C303.407 125.69 301.737 126.134 300.488 127.023C299.237 127.913 298.613 129.145 298.613 130.717C298.613 132.141 299.046 133.323 299.914 134.261C300.78 135.202 301.724 135.926 302.744 136.434C303.763 136.941 305.651 137.779 308.405 138.947C311.159 140.117 313.441 141.234 315.251 142.301C317.061 143.368 318.567 144.75 319.765 146.453C320.963 148.155 321.563 150.224 321.563 152.662C321.563 156.423 320.084 159.471 317.126 161.807C314.167 164.143 309.909 165.311 304.351 165.311C301.75 165.311 299.416 165.082 297.35 164.625C295.285 164.168 292.9 163.558 290.198 162.796L288.515 162.263V152.205H294.865L296.624 158.226Z" fill="#150D3F"/>
<path fill-rule="evenodd" clip-rule="evenodd" d="M332.578 113.573C331.507 112.506 330.972 111.135 330.972 109.458C330.972 107.527 331.584 105.929 332.808 104.658C334.032 103.39 335.664 102.753 337.704 102.753C339.743 102.753 341.299 103.299 342.37 104.392C343.441 105.485 343.977 106.843 343.977 108.469C343.977 110.499 343.365 112.125 342.141 113.344C340.917 114.563 339.208 115.173 337.015 115.173H336.939C335.103 115.173 333.649 114.64 332.578 113.573V113.573ZM332.886 129.345L327.454 127.899V122.793L341.454 121.116H341.607L343.749 122.642V159.291L348.874 159.9V164.472H327.531V159.9L332.886 159.215V129.345Z" fill="#150D3F"/>
<path fill-rule="evenodd" clip-rule="evenodd" d="M378.823 157.958C380.124 157.273 381.157 156.447 381.922 155.483V127.745C381.564 127.24 380.812 126.807 379.665 126.45C378.517 126.097 377.28 125.917 375.955 125.917C372.69 125.917 370.076 127.327 368.113 130.146C366.149 132.966 365.169 137.474 365.169 143.671C365.169 148.854 366.009 152.701 367.693 155.215C369.376 157.73 371.595 158.988 374.347 158.988C376.032 158.988 377.523 158.644 378.823 157.958M361.877 163.064C359.377 161.567 357.388 159.242 355.91 156.092C354.431 152.942 353.692 149.006 353.692 144.28C353.692 140.015 354.571 136.116 356.33 132.585C358.09 129.055 360.678 126.247 364.096 124.164C367.511 122.083 371.617 121.042 376.413 121.042C378.349 121.042 380.186 121.244 381.921 121.65V108.772L374.424 107.706V103.515L390.181 101.992H390.412L392.554 103.591V159.824H396.685V164.168C393.013 164.931 389.978 165.311 387.582 165.311C385.947 165.311 384.789 165.045 384.1 164.511C383.412 163.978 383.068 162.924 383.068 161.35V159.215C381.74 160.995 379.932 162.454 377.635 163.599C375.342 164.74 372.918 165.311 370.369 165.311C367.205 165.311 364.376 164.562 361.877 163.064" fill="#150D3F"/>
<path fill-rule="evenodd" clip-rule="evenodd" d="M427.515 139.329C427.616 137.907 427.668 136.814 427.668 136.052C427.668 129.297 425.397 125.918 420.859 125.918C418.359 125.918 416.422 126.909 415.045 128.89C413.668 130.871 412.903 134.351 412.75 139.329H427.515ZM406.514 159.406C403.225 155.47 401.579 150.099 401.579 143.289C401.579 138.719 402.432 134.757 404.143 131.403C405.85 128.052 408.259 125.487 411.371 123.708C414.482 121.932 418.077 121.042 422.158 121.042C427.257 121.042 431.185 122.374 433.939 125.041C436.693 127.708 438.12 131.506 438.223 136.433C438.223 139.786 438.019 142.275 437.611 143.899H412.748C412.952 148.523 414.049 152.119 416.038 154.683C418.027 157.248 420.857 158.53 424.529 158.53C426.518 158.53 428.571 158.201 430.688 157.538C432.803 156.88 434.474 156.092 435.698 155.176L437.611 159.367C436.234 160.842 434.002 162.199 430.916 163.444C427.83 164.689 424.707 165.31 421.546 165.31C414.814 165.31 409.804 163.344 406.514 159.406V159.406Z" fill="#150D3F"/>
</svg>
