<?xml version="1.0" encoding="utf-8"?>
<!-- Generator: Adobe Illustrator 24.0.1, SVG Export Plug-In . SVG Version: 6.00 Build 0)  -->
<svg version="1.1" id="Calque_1" xmlns="http://www.w3.org/2000/svg" xmlns:xlink="http://www.w3.org/1999/xlink" x="0px" y="0px"
	 viewBox="0 0 28.3 28.3" style="enable-background:new 0 0 28.3 28.3;" xml:space="preserve">
<style type="text/css">
	.st0{fill-rule:evenodd;clip-rule:evenodd;}
</style>
<title>Interface-Trash</title>
<path class="st0" d="M12.2,20.2c-0.5,0-1-0.4-1-0.9v-0.1v-6c0-0.5,0.4-1,0.9-1h0.1c0.5,0,1,0.4,1,0.9v0.1v6c0,0.5-0.4,1-0.9,1H12.2z
	 M16.2,20.2c-0.5,0-1-0.4-1-0.9v-0.1v-6c0-0.5,0.4-1,0.9-1h0.1c0.5,0,1,0.4,1,0.9v0.1v6c0,0.5-0.4,1-0.9,1H16.2z M12.2,8.2h4v-2h-4
	V8.2z M8.3,10.2l0.8,11.1c0.1,0.5,0.5,0.9,1,0.9h8.3c0.5,0,0.9-0.4,1-0.9l0.7-11.1H8.3z M18.3,24.2h-8.2c-1.6,0-2.9-1.2-3-2.8
	L6.3,10.2H6.2c-0.5,0-1-0.4-1-0.9V9.2c0-0.5,0.4-1,0.9-1h0.1h4v-2c0-1.1,0.9-2,2-2h4c1.1,0,2,0.9,2,2v2h4c0.5,0,1,0.4,1,0.9v0.1
	c0,0.5-0.4,1-0.9,1h-0.1h-0.1l-0.8,11.2C21.2,23,19.9,24.2,18.3,24.2z"/>
</svg>
